<svg xmlns="http://www.w3.org/2000/svg" xmlns:xlink="http://www.w3.org/1999/xlink" width="86.308" height="85.318" viewBox="0 0 86.308 85.318"><defs><style>.a{fill:#215f60;}.b{clip-path:url(#a);}</style><clipPath id="a"><path class="a" d="M266.761,99.53a5.253,5.253,0,0,1,1.188-5.7,5.331,5.331,0,0,1,3.825-1.582h0a5.188,5.188,0,0,1,1.884.377,5.049,5.049,0,0,1,3.169,4.785v5.278h-5.273v0h-.074a5.048,5.048,0,0,1-4.722-3.154m-4.122-11a13.1,13.1,0,0,0-3.8,10.333h0a12.457,12.457,0,0,0,12.476,11.416v0h5.517v3.373h7.591V97.029H284.4a12.465,12.465,0,0,0-7.773-11.455,12.618,12.618,0,0,0-4.612-.912h-.1a13.146,13.146,0,0,0-9.282,3.866m23.422-9.317c-3,0-3.419.1-4.463,1.041a3.872,3.872,0,0,0-1.253,3.254,4.143,4.143,0,0,0,4.213,3.986,3.618,3.618,0,0,0,2.49-.753,4.547,4.547,0,0,0,1.548-2.325,21.915,21.915,0,0,0,.137-2.854l.019-2.349ZM271.84,43.9h0Zm-5.212,12.807a5.217,5.217,0,1,1,5.216,5.219,5.158,5.158,0,0,1-5.216-5.219M271.842,43.9A12.8,12.8,0,0,0,267.8,68.858a6.588,6.588,0,0,1-12.936-1.815V53.305h-10V60.9h2.406v6.22A14.177,14.177,0,0,0,275.5,68.982,12.8,12.8,0,0,0,271.842,43.9h0m0,0h0Zm-21.533-1.928h0A3.99,3.99,0,0,0,247.4,43.3c-.989,1.095-1.091,1.533-1.091,4.682v2.82l2.464-.017a25.176,25.176,0,0,0,2.994-.143A4.78,4.78,0,0,0,254.2,49.02a3.778,3.778,0,0,0,.79-2.611,4.34,4.34,0,0,0-4.181-4.421c-.126-.008-.25-.013-.372-.013l-.13,0M228.368,83.244a3.668,3.668,0,0,1,2.3-3.433,3.73,3.73,0,0,1,1.646-.267,3.864,3.864,0,0,1,2.5,1.141,3.816,3.816,0,0,1,.863,4.146,3.663,3.663,0,0,1-3.483,2.295v0h-3.825ZM214.155,39.7h0a3.658,3.658,0,0,1,2.3-3.476,3.741,3.741,0,0,1,1.645-.268h0a3.646,3.646,0,0,1,1.015.209v0a3.894,3.894,0,0,1,1.419.911,3.815,3.815,0,0,1,.863,4.146,3.664,3.664,0,0,1-3.483,2.3h-3.766Zm-.74-10.546a11.089,11.089,0,0,0-6.91,10.442h.062V58.049h7.591V51.111h3.9v.017c.245,0,.487,0,.727-.017h10.144a5.671,5.671,0,1,1,0,11.343H218.774a16.409,16.409,0,0,0-14.127,8.036,15.974,15.974,0,0,0,0,16.189A16.4,16.4,0,0,0,218.285,94.7v.018h2.491v18.93h7.592V94.72H243.21a5.672,5.672,0,1,1,0,11.343v0H232.5v7.592h11.087v-.013a13.26,13.26,0,0,0-.308-26.515h-.307a11.031,11.031,0,0,0,.527-2.559h0a11.646,11.646,0,0,0-15.812-11.805,11.077,11.077,0,0,0-6.9,9.837h-.02v.491c0,.037,0,.074,0,.111V87.13H218.8a8.819,8.819,0,0,1-7.617-4.3,8.305,8.305,0,0,1,0-8.488,8.817,8.817,0,0,1,7.617-4.3h10.287v0c.171,0,.342,0,.512-.013a13.262,13.262,0,0,0,0-26.491c-.22-.012-.442-.018-.664-.018h-.167a11.223,11.223,0,0,0,.519-2.542A11.684,11.684,0,0,0,220.811,28.8a11.528,11.528,0,0,0-3.305-.457l.008,0a11.2,11.2,0,0,0-4.1.811" /></clipPath></defs><g class="b" transform="translate(-202.444 -28.341)"><rect class="a" width="121.625" height="121.76" transform="translate(159.312 75.732) rotate(-48.186)" /></g></svg>